<svg width="14" height="18" viewBox="0 0 14 18" fill="none" xmlns="http://www.w3.org/2000/svg">
<path d="M10.1263 9.83333C10.1263 9.48816 9.84648 9.20833 9.5013 9.20833H4.5013C4.15612 9.20833 3.8763 9.48816 3.8763 9.83333C3.8763 10.1785 4.15612 10.4583 4.5013 10.4583H9.5013C9.84648 10.4583 10.1263 10.1785 10.1263 9.83333Z" fill="#487B6C"/>
<path d="M10.1263 13.1667C10.1263 12.8215 9.84648 12.5417 9.5013 12.5417H4.5013C4.15612 12.5417 3.8763 12.8215 3.8763 13.1667C3.8763 13.5118 4.15612 13.7917 4.5013 13.7917H9.5013C9.84648 13.7917 10.1263 13.5118 10.1263 13.1667Z" fill="#487B6C"/>
<path fill-rule="evenodd" clip-rule="evenodd" d="M2.83464 0.875C1.56898 0.875 0.542969 1.90101 0.542969 3.16667V14.8333C0.542969 16.099 1.56898 17.125 2.83464 17.125H11.168C12.4336 17.125 13.4596 16.099 13.4596 14.8333V5.63971C13.4596 5.32241 13.3561 5.01375 13.1649 4.76058L10.6667 1.4542C10.3911 1.08941 9.96035 0.875 9.50315 0.875H2.83464ZM1.79297 3.16667C1.79297 2.59137 2.25934 2.125 2.83464 2.125H8.8763V5.7892C8.8763 6.13438 9.15613 6.4142 9.5013 6.4142H12.2096V14.8333C12.2096 15.4086 11.7433 15.875 11.168 15.875H2.83464C2.25934 15.875 1.79297 15.4086 1.79297 14.8333V3.16667Z" fill="#487B6C"/>
</svg>
