<svg width="14" height="14" viewBox="0 0 14 14" fill="none" xmlns="http://www.w3.org/2000/svg">
<path fill-rule="evenodd" clip-rule="evenodd" d="M13.305 2.6105C13.4331 2.80458 13.4118 3.06832 13.2409 3.23917L7.11266 9.36743C7.04985 9.43025 6.97142 9.47519 6.88547 9.49765L4.33319 10.1643C4.24994 10.1861 4.16414 10.1856 4.08351 10.1651C3.9978 10.1433 3.91796 10.0988 3.85328 10.0341C3.72776 9.90858 3.6782 9.72592 3.72306 9.55418L4.38973 7.00189C4.40937 6.92669 4.44624 6.85241 4.49723 6.79414L10.6482 0.646447C10.702 0.592604 10.7669 0.552307 10.8375 0.527754C10.8898 0.50955 10.9453 0.5 11.0017 0.5C11.1344 0.5 11.2615 0.552678 11.3553 0.646447L13.2409 2.53206C13.2653 2.55647 13.2867 2.58278 13.305 2.6105ZM12.1803 2.88562L11.0017 1.70711L5.32297 7.38588L4.90632 8.98106L6.50149 8.56439L12.1803 2.88562Z" fill="black"/>
<path d="M12.096 10.4402C12.2783 8.8818 12.3363 7.31252 12.27 5.74719C12.2668 5.67225 12.295 5.59932 12.348 5.54628L13.0036 4.89073C13.0842 4.81013 13.2219 4.86129 13.2294 4.97503C13.3527 6.8348 13.306 8.70302 13.0892 10.5564C12.9315 11.9047 11.8486 12.9614 10.5073 13.1113C8.1962 13.3696 5.80731 13.3696 3.49626 13.1113C2.15489 12.9614 1.072 11.9047 0.9143 10.5564C0.637942 8.19351 0.637942 5.80649 0.9143 3.44362C1.072 2.09527 2.15489 1.03859 3.49626 0.888675C5.24943 0.692732 7.04739 0.645432 8.82218 0.746774C8.93657 0.753305 8.98871 0.891717 8.9077 0.972729L8.246 1.63443C8.19353 1.6869 8.12159 1.71507 8.04744 1.71257C6.56316 1.66251 5.06879 1.71915 3.60734 1.88249C2.7206 1.98159 2.01027 2.68134 1.90753 3.55979C1.6402 5.84547 1.6402 8.15452 1.90753 10.4402C2.01027 11.3187 2.7206 12.0184 3.60734 12.1175C5.84457 12.3675 8.15895 12.3675 10.3962 12.1175C11.2829 12.0184 11.9932 11.3187 12.096 10.4402Z" fill="black"/>
</svg>
