<svg width="14" height="10" viewBox="0 0 14 10" fill="none" xmlns="http://www.w3.org/2000/svg">
<path fill-rule="evenodd" clip-rule="evenodd" d="M13.4596 5C13.4596 4.65482 13.1798 4.375 12.8346 4.375H1.16797C0.82279 4.375 0.542969 4.65482 0.542969 5C0.542969 5.34518 0.82279 5.625 1.16797 5.625H12.8346C13.1798 5.625 13.4596 5.34518 13.4596 5Z" fill="black"/>
<path fill-rule="evenodd" clip-rule="evenodd" d="M13.4596 0.833332C13.4596 0.488154 13.1798 0.208332 12.8346 0.208332H1.16797C0.82279 0.208332 0.542969 0.488154 0.542969 0.833332C0.542969 1.17851 0.82279 1.45833 1.16797 1.45833H12.8346C13.1798 1.45833 13.4596 1.17851 13.4596 0.833332Z" fill="black"/>
<path fill-rule="evenodd" clip-rule="evenodd" d="M13.4596 9.16667C13.4596 8.82149 13.1798 8.54167 12.8346 8.54167H1.16797C0.82279 8.54167 0.542969 8.82149 0.542969 9.16667C0.542969 9.51184 0.82279 9.79167 1.16797 9.79167H12.8346C13.1798 9.79167 13.4596 9.51184 13.4596 9.16667Z" fill="black"/>
</svg>
