<svg width="16" height="16" viewBox="0 0 16 16" fill="none" xmlns="http://www.w3.org/2000/svg">
<path fill-rule="evenodd" clip-rule="evenodd" d="M9.98783 10.8714C7.77927 12.6403 4.54641 12.5011 2.49909 10.4538C0.302388 8.25708 0.302388 4.69552 2.49909 2.49882C4.69579 0.302124 8.25734 0.302125 10.454 2.49882C12.5014 4.54614 12.6406 7.779 10.8717 9.98756L15.1681 14.2839C15.4121 14.528 15.4121 14.9237 15.1681 15.1678C14.924 15.4119 14.5283 15.4119 14.2842 15.1678L9.98783 10.8714ZM3.38297 9.56989C1.67443 7.86135 1.67443 5.09125 3.38297 3.38271C5.09151 1.67416 7.86161 1.67416 9.57016 3.38271C11.2774 5.09 11.2787 7.85728 9.57392 9.56613C9.57265 9.56737 9.5714 9.56862 9.57014 9.56987C9.56889 9.57113 9.56764 9.57238 9.5664 9.57365C7.85755 11.2784 5.09026 11.2772 3.38297 9.56989Z" fill="black"/>
</svg>
