<svg width="18" height="14" viewBox="0 0 18 14" fill="none" xmlns="http://www.w3.org/2000/svg">
<path fill-rule="evenodd" clip-rule="evenodd" d="M7.65516 3.96417C7.46208 3.84833 7.2216 3.84529 7.02566 3.95623C6.82972 4.06717 6.7086 4.27494 6.7086 4.50011V9.50011C6.7086 9.72528 6.82972 9.93304 7.02566 10.044C7.2216 10.1549 7.46208 10.1519 7.65516 10.036L11.8218 7.53604C12.0101 7.42309 12.1253 7.21965 12.1253 7.00011C12.1253 6.78057 12.0101 6.57713 11.8218 6.46417L7.65516 3.96417ZM10.2855 7.00011L7.9586 8.39624V5.60398L10.2855 7.00011Z" fill="#487B6C"/>
<path fill-rule="evenodd" clip-rule="evenodd" d="M13.1925 0.867841C10.402 0.649522 7.59863 0.649522 4.80808 0.867841L2.94083 1.01393C1.80536 1.10276 0.876457 1.95376 0.688759 3.07713C0.254789 5.67444 0.254789 8.32577 0.688759 10.9231C0.876456 12.0464 1.80536 12.8975 2.94083 12.9863L4.80808 13.1324C7.59862 13.3507 10.402 13.3507 13.1925 13.1324L15.0597 12.9863C16.1952 12.8975 17.1241 12.0464 17.3118 10.9231C17.7458 8.32577 17.7458 5.67444 17.3118 3.07713C17.1241 1.95376 16.1952 1.10276 15.0597 1.01393L13.1925 0.867841ZM4.90558 2.11403C7.63123 1.90079 10.3694 1.90079 13.095 2.11403L14.9622 2.26012C15.5253 2.30417 15.9858 2.72612 16.0789 3.28313C16.4901 5.74406 16.4901 8.25616 16.0789 10.7171C15.9858 11.2741 15.5253 11.696 14.9622 11.7401L13.095 11.8862C10.3694 12.0994 7.63122 12.0994 4.90558 11.8862L3.03833 11.7401C2.47532 11.696 2.01474 11.2741 1.92167 10.7171C1.51049 8.25616 1.51049 5.74406 1.92167 3.28313C2.01474 2.72612 2.47532 2.30417 3.03833 2.26012L4.90558 2.11403Z" fill="#487B6C"/>
</svg>
